#!OML:ASF H:\ManfredETheater\Project 1\Capture day 1\Session 1\subject.ASF
:FULLY-SPECIFIED
:DEGREES
115
root -12.413 15.595 -17.4166 -175.417 -66.5155 -177.694
lowerback 9.24318 -3.61893 -5.67147
upperback -1.1411 -5.33461 2.54698
thorax -5.62091 -2.41657 6.59337
lowerneck -17.3321 -0.877701 -3.23134
upperneck 16.8318 -0.235138 -1.09537
head 8.08137 -0.475304 0.130249
rclavicle -1.55301e-016 -1.2424e-017
rhumerus -71.306 -3.46987 -67.2473
rradius 80.8795
rwrist -9.96051
rhand -30.6185 9.29877
rfingers 7.12502
rthumb -3.91472 -20.645
lclavicle -1.55301e-016 -1.2424e-017
lhumerus -49.2605 -12.7114 93.8562
lradius 109.547
lwrist 3.64017
lhand -18.1915 -14.9262
lfingers 7.12502
lthumb 8.08552 14.8992
rfemur -50.6106 -16.3551 5.09651
rtibia 41.6747
rfoot 14.023 -11.4126
rtoes -32.1269
lfemur 11.1952 -13.8029 -26.2482
ltibia 72.1548
lfoot -9.46399 -4.7141
ltoes -1.41178
116
root -12.7334 15.5247 -17.7953 -179.617 -66.8666 -174.48
lowerback 10.6299 -3.40762 -4.41539
upperback -0.928206 -4.95212 2.83355
thorax -6.31373 -2.24228 6.25703
lowerneck -17.3269 -1.08029 -3.20553
upperneck 16.8042 -0.500013 -1.19298
head 8.07396 -0.60812 0.0620196
rclavicle -1.51806e-014 2.54072e-015
rhumerus -70.3409 -3.72615 -66.7778
rradius 80.6856
rwrist -9.97739
rhand -30.8438 9.21833
rfingers 7.12502
rthumb -4.13227 -20.7213
lclavicle -1.51806e-014 2.54072e-015
lhumerus -49.2541 -12.1668 94.0691
lradius 107.765
lwrist 2.84301
lhand -18.3179 -15.1058
lfingers 7.12502
lthumb 7.96355 14.7242
rfemur -50.0904 -16.5273 6.83557
rtibia 45.6336
rfoot 11.0593 -10.7999
rtoes -31.7299
lfemur 9.80542 -13.3106 -24.348
ltibia 77.167
lfoot -10.2358 -5.02988
ltoes -1.14338
117
root -13.0466 15.4582 -18.1551 -184.754 -66.8652 -170.302
lowerback 12.1444 -3.16276 -2.77383
upperback -0.665627 -4.43336 3.22703
thorax -7.05056 -2.02323 5.78938
lowerneck -17.3442 -1.28465 -3.19156
upperneck 16.7481 -0.76523 -1.27756
head 8.06067 -0.739729 0.000111604
rclavicle 3.7648e-014 -1.23992e-014
rhumerus -69.0213 -3.89602 -66.3818
rradius 80.1326
rwrist -9.9632
rhand -31.0383 9.1807
rfingers 7.12502
rthumb -4.32011 -20.7552
lclavicle 3.7648e-014 -1.23992e-014
lhumerus -49.0668 -11.2818 94.3213
lradius 105.75
lwrist 1.92868
lhand -18.6724 -15.1787
lfingers 7.12502
lthumb 7.62138 14.6639
rfemur -49.3662 -16.3949 8.78552
rtibia 49.4854
rfoot 7.98973 -10.5538
rtoes -31.7504
lfemur 8.20224 -12.5783 -22.0185
ltibia 82.0845
lfoot -11.1223 -5.52176
ltoes -0.816078
118
root -13.3617 15.4283 -18.4971 -190.111 -66.535 -165.791
lowerback 13.6238 -2.91117 -0.989841
upperback -0.377397 -3.83148 3.70233
thorax -7.72979 -1.78372 5.28922
lowerneck -17.3801 -1.5003 -3.22176
upperneck 16.6554 -1.04169 -1.31779
head 8.03864 -0.873964 -0.0409852
rclavicle 9.07576e-015 -1.57537e-014
rhumerus -67.2902 -3.93704 -66.0489
rradius 79.1605
rwrist -9.92884
rhand -31.1906 9.17308
rfingers 7.12502
rthumb -4.46717 -20.7598
lclavicle 9.07576e-015 -1.57537e-014
lhumerus -48.6809 -10.0629 94.5968
lradius 103.472
lwrist 0.991589
lhand -19.2185 -15.1308
lfingers 7.12502
lthumb 7.09425 14.7303
rfemur -48.3196 -16.0387 10.8017
rtibia 52.9547
rfoot 4.9721 -10.602
rtoes -32.2632
lfemur 6.25726 -11.659 -19.4368
ltibia 86.7086
lfoot -11.9901 -6.17317
ltoes -0.463402
119
root -13.6617 15.3776 -18.8299 -195.033 -65.9947 -161.538
lowerback 14.9258 -2.65799 0.692933
upperback -0.0975437 -3.19671 4.21266
thorax -8.28488 -1.53918 4.84417
lowerneck -17.4195 -1.73548 -3.2921
upperneck 16.5459 -1.34702 -1.28978
head 8.0125 -1.01688 -0.056085
rclavicle -6.79595e-015 3.0911e-014
rhumerus -65.1651 -3.84355 -65.766
rradius 77.7385
rwrist -9.89421
rhand -31.2979 9.15166
rfingers 7.12502
rthumb -4.57081 -20.779
lclavicle -6.79595e-015 3.0911e-014
lhumerus -48.1324 -8.60365 94.8826
lradius 100.94
lwrist 0.22228
lhand -19.9297 -14.9641
lfingers 7.12502
lthumb 6.40767 14.919
rfemur -47.3354 -15.603 12.7481
rtibia 56.1024
rfoot 2.3099 -10.835
rtoes -33.1643
lfemur 3.80268 -10.6237 -16.7575
ltibia 91.209
lfoot -13.0042 -6.962
ltoes -0.127181
120
root -13.9566 15.3384 -19.1556 -199.053 -65.4322 -157.992
lowerback 15.9524 -2.40329 2.0293
upperback 0.14529 -2.59107 4.71371
thorax -8.68079 -1.30498 4.5583
lowerneck -17.4307 -1.99489 -3.42593
upperneck 16.4258 -1.68836 -1.16751
head 7.97994 -1.17095 -0.0333801
rclavicle -5.34234e-016 -2.8128e-014
rhumerus -62.6821 -3.59735 -65.5094
rradius 75.8706
rwrist -9.85497
rhand -31.3509 9.04323
rfingers 7.12502
rthumb -4.62193 -20.8863
lclavicle -5.34234e-016 -2.8128e-014
lhumerus -47.4781 -7.00389 95.1771
lradius 98.214
lwrist -0.183437
lhand -20.7271 -14.6825
lfingers 7.12502
lthumb 5.63785 15.2225
rfemur -46.3011 -15.2241 14.4657
rtibia 58.7911
rfoot -0.225098 -11.1832
rtoes -34.0877
lfemur 0.782572 -9.52017 -14.2757
ltibia 95.3927
lfoot -13.9895 -7.77856
ltoes 0.149693
121
root -14.2476 15.3098 -19.4777 -202.084 -65.0124 -155.248
lowerback 16.6544 -2.13665 2.89381
upperback 0.340119 -2.0476 5.18003
thorax -8.90895 -1.08549 4.48778
lowerneck -17.3847 -2.27639 -3.59822
upperneck 16.3073 -2.06498 -0.98291
head 7.94036 -1.33809 0.0127089
rclavicle 1.06101e-014 -2.50469e-014
rhumerus -59.9207 -3.22098 -65.2418
rradius 73.6152
rwrist -9.76357
rhand -31.3481 8.77893
rfingers 7.12502
rthumb -4.61922 -21.1507
lclavicle 1.06101e-014 -2.50469e-014
lhumerus -46.7831 -5.40972 95.4862
lradius 95.3965
lwrist -0.04207
lhand -21.5238 -14.3703
lfingers 7.12502
lthumb 4.86858 15.5538
rfemur -45.2652 -15.0021 15.884
rtibia 61.1185
rfoot -2.75153 -11.6222
rtoes -35.0934
lfemur -2.79141 -8.38442 -12.1945
ltibia 99.2085
lfoot -14.9282 -8.50876
ltoes 0.207767
122
root -14.5363 15.2927 -19.7977 -204.219 -64.8403 -153.246
lowerback 17.0571 -1.86428 3.27911
upperback 0.473437 -1.5909 5.57683
thorax -9.01269 -0.886864 4.61372
lowerneck -17.2989 -2.55801 -3.76235
upperneck 16.2339 -2.45188 -0.770002
head 7.91071 -1.50799 0.0658105
rclavicle -2.31584e-014 -5.96354e-016
rhumerus -57.0104 -2.76194 -64.9656
rradius 71.0967
rwrist -9.53915
rhand -31.3036 8.33963
rfingers 7.12502
rthumb -4.57633 -21.5909
lclavicle -2.31584e-014 -5.96354e-016
lhumerus -46.1511 -3.98692 95.7959
lradius 92.6478
lwrist 0.76981
lhand -22.2747 -14.13
lfingers 7.12502
lthumb 4.14354 15.8094
rfemur -44.192 -14.8927 16.9347
rtibia 63.0664
rfoot -5.13536 -12.2475
rtoes -36.2611
lfemur -6.84722 -7.25159 -10.6737
ltibia 102.547
lfoot -15.7586 -9.05634
ltoes 0.0223704
123
root -14.8211 15.2795 -20.1147 -205.732 -64.9384 -151.785
lowerback 17.2813 -1.60214 3.29518
upperback 0.546256 -1.22177 5.89175
thorax -9.07214 -0.711749 4.87192
lowerneck -17.1787 -2.82936 -3.89658
upperneck 16.2247 -2.83499 -0.559668
head 7.8974 -1.67617 0.113611
rclavicle 1.69961e-014 3.00165e-014
rhumerus -54.0893 -2.27643 -64.68
rradius 68.4962
rwrist -9.1522
rhand -31.2387 7.78088
rfingers 7.12502
rthumb -4.51368 -22.151
lclavicle 1.69961e-014 3.00165e-014
lhumerus -45.6704 -2.87851 96.099
lradius 90.1293
lwrist 2.19725
lhand -22.9008 -14.0348
lfingers 7.12502
lthumb 3.53891 15.9156
rfemur -43.1184 -15.156 17.7094
rtibia 64.7413
rfoot -7.45296 -12.8006
rtoes -37.2403
lfemur -11.2542 -6.17103 -9.76467
ltibia 105.364
lfoot -16.4875 -9.35907
ltoes -0.422089
